<svg width="192" height="192" viewBox="0 0 192 192" fill="none" xmlns="http://www.w3.org/2000/svg">
<g clip-path="url(#clip0_7045_32204)">
<rect width="192" height="192" rx="6" fill="white"/>
<path fill-rule="evenodd" clip-rule="evenodd" d="M0.00392532 84.0884V90.1585C20.5934 82.1457 41.3628 77.2615 61.2955 74.3746C42.9268 73.8987 21.3285 77.0196 0.00392532 84.0884Z" fill="#0032A0"/>
<path fill-rule="evenodd" clip-rule="evenodd" d="M112.566 90.4199C107.71 86.909 102.619 83.7022 96.0426 81.0105C98.24 80.87 100.516 80.5189 103.096 80.3863C107.202 83.1015 112.722 87.4161 115.991 91.5279L112.566 90.4199ZM67.3126 65.1637C62.2531 63.2599 56.271 61.9882 50.328 61.1455C52.9007 60.576 55.4186 60.0844 58.2885 59.7333C62.4565 60.8725 67.9616 62.8464 73.2165 66.0844L67.3126 65.1637ZM0 52.1267C5.54423 51.9628 11.8861 53.8119 18.7519 54.717L6.68592 56.2618C4.62932 56.3477 2.32248 56.5349 0 56.7612V59.4763C8.74253 57.8457 18.3061 56.7846 27.1738 56.7066C104.871 38.1607 169.236 55.622 169.236 55.622C155.426 52.4699 78.4794 41.9682 0 72.8103V77.4917C11.6515 73.5516 23.9598 70.5087 35.7365 69.1121C53.1981 66.9587 69.4319 67.9183 83.1009 71.7882C140.529 67.6765 182.146 79.9884 182.146 79.9884C166.523 77.4371 82.6787 65.921 0 103.754V107.515C22.8885 96.5681 46.8953 90.2561 67.3597 88.9063C88.1056 87.7906 106.662 90.7477 120.612 99.0492C153.51 98.5421 178.581 102.802 192.594 106.212V0H0V52.1267Z" fill="#0032A0"/>
<path fill-rule="evenodd" clip-rule="evenodd" d="M0.00392532 115.267V127.002C33.8324 110.547 68.3177 102.729 98.3613 100.139C70.9138 95.2855 35.7326 100.287 0.00392532 115.267Z" fill="#0032A0"/>
<path fill-rule="evenodd" clip-rule="evenodd" d="M147.832 129.25C141.998 120.636 134.608 114.129 124.357 109.144C127.422 108.777 131.277 108.668 134.155 108.535C135.179 109.292 136.157 110.236 137.079 111.383C137.431 111.89 148.856 123.148 152.688 134.61L147.832 129.25ZM0.00620651 142.473V147.35C2.32869 146.023 4.65898 144.759 6.84853 143.581C24.1537 134.273 41.4433 127.789 58.725 123.841C75.084 119.94 91.1068 118.559 105.753 119.862C133.443 122.351 153.329 134.452 162.908 155.347C162.994 155.503 169.836 170.85 170.493 185.323L167.17 177.037C166.294 172.902 165.16 168.65 162.994 164.842C155.902 151.048 142.076 141.147 123.426 135.342C106.488 129.99 84.2488 129.756 61.1726 134.273C40.6926 138.159 19.845 145.898 0.00620651 155.729V192.119H1.92988C13.8316 183.263 26.6717 176.772 40.0201 171.474C75.0058 156.416 109.038 151.859 134.577 158.639C153.329 164.007 165.583 175.086 170.572 192.119H192.6V107.753C161.086 104.164 77.1016 98.3516 0.00620651 142.473Z" fill="#0032A0"/>
<path fill-rule="evenodd" clip-rule="evenodd" d="M130.872 172.172C114.161 167.74 94.9401 167.475 73.6233 171.423C54.6056 174.903 34.6729 181.363 15.5066 192.122H161.776C154.965 182.182 144.119 175.816 130.872 172.172Z" fill="#0032A0"/>
</g>
<defs>
<clipPath id="clip0_7045_32204">
<rect width="192" height="192" rx="6" fill="white"/>
</clipPath>
</defs>
</svg>
